<svg width="30" height="30" viewBox="0 0 30 30" fill="none" xmlns="http://www.w3.org/2000/svg">
<circle cx="15" cy="15" r="15" fill="white"/>
<path d="M21.1431 16.1631C21.25 15.905 21.25 15.5769 21.25 14.9219C21.25 14.2669 21.25 13.9388 21.1431 13.6806C21.0725 13.51 20.9688 13.3549 20.8382 13.2243C20.7076 13.0937 20.5525 12.99 20.3819 12.9194C20.1237 12.8125 19.7956 12.8125 19.1406 12.8125H15.0625C14.275 12.8125 13.8813 12.8125 13.5806 12.9656C13.3158 13.1005 13.1005 13.3158 12.9656 13.5806C12.8125 13.8806 12.8125 14.2744 12.8125 15.0625V19.1406C12.8125 19.7956 12.8125 20.1237 12.9194 20.3819C13.0625 20.7262 13.3363 21.0006 13.6806 21.1431C13.9388 21.25 14.2669 21.25 14.9219 21.25C15.5769 21.25 15.905 21.25 16.1631 21.1431M21.1431 16.1631C21.0725 16.3338 20.9688 16.4889 20.8382 16.6195C20.7076 16.7501 20.5525 16.8537 20.3819 16.9244C20.1237 17.0313 19.7956 17.0312 19.1406 17.0312C18.4856 17.0312 18.1575 17.0312 17.8994 17.1381C17.7287 17.2088 17.5736 17.3124 17.443 17.443C17.3124 17.5736 17.2088 17.7287 17.1381 17.8994C17.0312 18.1575 17.0312 18.4856 17.0312 19.1406C17.0312 19.7956 17.0313 20.1237 16.9244 20.3819C16.8537 20.5525 16.7501 20.7076 16.6195 20.8382C16.4889 20.9688 16.3338 21.0725 16.1631 21.1431M21.1431 16.1631C20.8069 17.3224 20.1885 18.3803 19.3431 19.242C18.4978 20.1036 17.452 20.7422 16.2994 21.1006L16.1631 21.1431M18.4375 12.8125V12.25C18.4375 11.4625 18.4375 11.0688 18.2844 10.7681C18.1497 10.5034 17.9346 10.2881 17.67 10.1531C17.3688 10 16.975 10 16.1875 10H12.25C11.4625 10 11.0688 10 10.7681 10.1531C10.5033 10.288 10.288 10.5033 10.1531 10.7681C10 11.0681 10 11.4619 10 12.25V16.1875C10 16.975 10 17.3688 10.1531 17.6694C10.2881 17.9344 10.5031 18.1494 10.7681 18.2844C11.0681 18.4375 11.4625 18.4375 12.2506 18.4375H12.8125" fill="white"/>
<path d="M21.1431 16.1631C21.25 15.905 21.25 15.5769 21.25 14.9219C21.25 14.2669 21.25 13.9387 21.1431 13.6806C21.0725 13.51 20.9688 13.3549 20.8382 13.2243C20.7076 13.0937 20.5525 12.99 20.3819 12.9194C20.1238 12.8125 19.7956 12.8125 19.1406 12.8125H15.0625C14.275 12.8125 13.8813 12.8125 13.5806 12.9656C13.3158 13.1005 13.1005 13.3158 12.9656 13.5806C12.8125 13.8806 12.8125 14.2744 12.8125 15.0625V19.1406C12.8125 19.7956 12.8125 20.1238 12.9194 20.3819C13.0625 20.7263 13.3362 21.0006 13.6806 21.1431C13.9387 21.25 14.2669 21.25 14.9219 21.25C15.5769 21.25 15.905 21.25 16.1631 21.1431M21.1431 16.1631C21.0725 16.3338 20.9688 16.4889 20.8382 16.6195C20.7076 16.7501 20.5525 16.8537 20.3819 16.9244C20.1238 17.0313 19.7956 17.0312 19.1406 17.0312C18.4856 17.0312 18.1575 17.0312 17.8994 17.1381C17.7287 17.2088 17.5736 17.3124 17.443 17.443C17.3124 17.5736 17.2088 17.7287 17.1381 17.8994C17.0312 18.1575 17.0312 18.4856 17.0312 19.1406C17.0312 19.7956 17.0313 20.1238 16.9244 20.3819C16.8537 20.5525 16.7501 20.7076 16.6195 20.8382C16.4889 20.9688 16.3338 21.0725 16.1631 21.1431M21.1431 16.1631C20.8069 17.3224 20.1885 18.3803 19.3431 19.242C18.4978 20.1036 17.452 20.7422 16.2994 21.1006L16.1631 21.1431M18.4375 12.8125V12.25C18.4375 11.4625 18.4375 11.0688 18.2844 10.7681C18.1497 10.5034 17.9346 10.2881 17.67 10.1531C17.3688 10 16.975 10 16.1875 10H12.25C11.4625 10 11.0688 10 10.7681 10.1531C10.5033 10.288 10.288 10.5033 10.1531 10.7681C10 11.0681 10 11.4619 10 12.25V16.1875C10 16.975 10 17.3687 10.1531 17.6694C10.2881 17.9344 10.5031 18.1494 10.7681 18.2844C11.0681 18.4375 11.4625 18.4375 12.2506 18.4375H12.8125" stroke="black" stroke-width="0.75" stroke-linecap="round" stroke-linejoin="round"/>
</svg>
