<svg width="24" height="24" viewBox="0 0 24 24" fill="none" xmlns="http://www.w3.org/2000/svg">
<path d="M14.3079 4.84338L17.1599 7.69538M7.00391 6.99938H4.00391C3.73869 6.99938 3.48434 7.10474 3.2968 7.29228C3.10926 7.47981 3.00391 7.73417 3.00391 7.99938V17.9994C3.00391 18.2646 3.10926 18.519 3.2968 18.7065C3.48434 18.894 3.73869 18.9994 4.00391 18.9994H15.0039C15.2691 18.9994 15.5235 18.894 15.711 18.7065C15.8985 18.519 16.0039 18.2646 16.0039 17.9994V13.4994M18.4129 3.58938C18.6003 3.77669 18.7489 3.99908 18.8503 4.24384C18.9517 4.4886 19.0039 4.75094 19.0039 5.01588C19.0039 5.28082 18.9517 5.54317 18.8503 5.78793C18.7489 6.03269 18.6003 6.25508 18.4129 6.44238L11.5689 13.2864L8.00391 13.9994L8.71691 10.4344L15.5609 3.59038C15.7481 3.40292 15.9703 3.2542 16.215 3.15273C16.4597 3.05125 16.722 2.99902 16.9869 2.99902C17.2518 2.99902 17.5141 3.05125 17.7588 3.15273C18.0035 3.2542 18.2258 3.40292 18.4129 3.59038V3.58938Z" stroke="black" stroke-width="2" stroke-linecap="round" stroke-linejoin="round"/>
</svg>
