<svg width="30" height="30" viewBox="0 0 30 30" fill="none" xmlns="http://www.w3.org/2000/svg">
<circle cx="15" cy="15" r="15" fill="black"/>
<path d="M13.6398 17.2468H13.1398V17.7468V21.4995C13.1398 21.5824 13.1091 21.6503 13.0696 21.694C13.0306 21.7371 12.9909 21.75 12.9605 21.75H10.9224C10.892 21.75 10.8523 21.7371 10.8133 21.694C10.7738 21.6503 10.7431 21.5824 10.7431 21.4995V16.2458V15.7458H10.2431H9.41917L14.8948 10.297C14.895 10.2968 14.8951 10.2967 14.8953 10.2966C14.9315 10.261 14.9684 10.25 14.9985 10.25C15.0286 10.25 15.0655 10.261 15.1017 10.2966C15.1019 10.2967 15.102 10.2968 15.1021 10.297L20.5778 15.7458H19.7539H19.2539V16.2458V21.4995C19.2539 21.5824 19.2232 21.6503 19.1836 21.694C19.1446 21.7371 19.105 21.75 19.0745 21.75H17.0365C17.0061 21.75 16.9664 21.7371 16.9274 21.694C16.8879 21.6503 16.8572 21.5824 16.8572 21.4995V17.7468V17.2468H16.3572H13.6398Z" stroke="url(#paint0_linear_622_15916)"/>
<defs>
<linearGradient id="paint0_linear_622_15916" x1="8.75" y1="16" x2="21.25" y2="16" gradientUnits="userSpaceOnUse">
<stop offset="0.075" stop-color="#BF9347"/>
<stop offset="0.28" stop-color="#FBF398"/>
<stop offset="0.54" stop-color="#F0D571"/>
<stop offset="0.8" stop-color="#F9F194"/>
<stop offset="1" stop-color="#DEAB3D"/>
</linearGradient>
</defs>
</svg>
