<svg width="30" height="30" viewBox="0 0 30 30" fill="none" xmlns="http://www.w3.org/2000/svg">
<circle cx="15" cy="15" r="15" fill="black"/>
<path d="M15.625 10.625H20.625H15.625ZM15.625 13.125H18.75H15.625ZM15.625 16.875H20.625H15.625ZM15.625 19.375H18.75H15.625ZM9.375 10.625C9.375 10.4592 9.44085 10.3003 9.55806 10.1831C9.67527 10.0658 9.83424 10 10 10H12.5C12.6658 10 12.8247 10.0658 12.9419 10.1831C13.0592 10.3003 13.125 10.4592 13.125 10.625V13.125C13.125 13.2908 13.0592 13.4497 12.9419 13.5669C12.8247 13.6842 12.6658 13.75 12.5 13.75H10C9.83424 13.75 9.67527 13.6842 9.55806 13.5669C9.44085 13.4497 9.375 13.2908 9.375 13.125V10.625ZM9.375 16.875C9.375 16.7092 9.44085 16.5503 9.55806 16.4331C9.67527 16.3158 9.83424 16.25 10 16.25H12.5C12.6658 16.25 12.8247 16.3158 12.9419 16.4331C13.0592 16.5503 13.125 16.7092 13.125 16.875V19.375C13.125 19.5408 13.0592 19.6997 12.9419 19.8169C12.8247 19.9342 12.6658 20 12.5 20H10C9.83424 20 9.67527 19.9342 9.55806 19.8169C9.44085 19.6997 9.375 19.5408 9.375 19.375V16.875Z" fill="url(#paint0_linear_622_15962)"/>
<path d="M15.625 10.625H20.625M15.625 13.125H18.75M15.625 16.875H20.625M15.625 19.375H18.75M9.375 10.625C9.375 10.4592 9.44085 10.3003 9.55806 10.1831C9.67527 10.0658 9.83424 10 10 10H12.5C12.6658 10 12.8247 10.0658 12.9419 10.1831C13.0592 10.3003 13.125 10.4592 13.125 10.625V13.125C13.125 13.2908 13.0592 13.4497 12.9419 13.5669C12.8247 13.6842 12.6658 13.75 12.5 13.75H10C9.83424 13.75 9.67527 13.6842 9.55806 13.5669C9.44085 13.4497 9.375 13.2908 9.375 13.125V10.625ZM9.375 16.875C9.375 16.7092 9.44085 16.5503 9.55806 16.4331C9.67527 16.3158 9.83424 16.25 10 16.25H12.5C12.6658 16.25 12.8247 16.3158 12.9419 16.4331C13.0592 16.5503 13.125 16.7092 13.125 16.875V19.375C13.125 19.5408 13.0592 19.6997 12.9419 19.8169C12.8247 19.9342 12.6658 20 12.5 20H10C9.83424 20 9.67527 19.9342 9.55806 19.8169C9.44085 19.6997 9.375 19.5408 9.375 19.375V16.875Z" stroke="url(#paint1_linear_622_15962)" stroke-linecap="round" stroke-linejoin="round"/>
<defs>
<linearGradient id="paint0_linear_622_15962" x1="9.375" y1="15" x2="20.625" y2="15" gradientUnits="userSpaceOnUse">
<stop offset="0.075" stop-color="#BF9347"/>
<stop offset="0.28" stop-color="#FBF398"/>
<stop offset="0.54" stop-color="#F0D571"/>
<stop offset="0.8" stop-color="#F9F194"/>
<stop offset="1" stop-color="#DEAB3D"/>
</linearGradient>
<linearGradient id="paint1_linear_622_15962" x1="9.375" y1="15" x2="20.625" y2="15" gradientUnits="userSpaceOnUse">
<stop offset="0.075" stop-color="#BF9347"/>
<stop offset="0.28" stop-color="#FBF398"/>
<stop offset="0.54" stop-color="#F0D571"/>
<stop offset="0.8" stop-color="#F9F194"/>
<stop offset="1" stop-color="#DEAB3D"/>
</linearGradient>
</defs>
</svg>
