<svg width="30" height="30" viewBox="0 0 30 30" fill="none" xmlns="http://www.w3.org/2000/svg">
<circle cx="15" cy="15" r="15" fill="black"/>
<path fill-rule="evenodd" clip-rule="evenodd" d="M9.32373 10.998C9.18673 11.0355 9.07026 11.1259 8.99994 11.2494C8.92961 11.3728 8.91119 11.5191 8.94873 11.6561L9.44561 13.4611C9.54561 13.823 9.92061 14.0342 10.2825 13.9336L12.0894 13.4305C12.1596 13.4139 12.2257 13.3833 12.2838 13.3406C12.3419 13.2979 12.3907 13.2438 12.4275 13.1817C12.4642 13.1196 12.4879 13.0508 12.4974 12.9793C12.5068 12.9078 12.5017 12.8351 12.4824 12.7656C12.4631 12.6961 12.4299 12.6312 12.3849 12.5749C12.3399 12.5185 12.284 12.4718 12.2205 12.4376C12.157 12.4034 12.0872 12.3824 12.0154 12.3758C11.9436 12.3692 11.8711 12.3771 11.8025 12.3992L10.375 12.7967L9.98248 11.3717C9.96376 11.3039 9.93185 11.2404 9.88858 11.1848C9.8453 11.1293 9.7915 11.0829 9.73026 11.0482C9.66903 11.0135 9.60155 10.9912 9.53168 10.9825C9.46182 10.9739 9.39094 10.9792 9.32311 10.998H9.32373Z" fill="url(#paint0_linear_622_15981)"/>
<path fill-rule="evenodd" clip-rule="evenodd" d="M11.026 10.8602C13.3335 8.55274 17.0716 8.54462 19.3754 10.8477C21.6791 13.1521 21.671 16.8902 19.3629 19.1977C17.056 21.5052 13.3179 21.5134 11.0141 19.2096C10.3954 18.5917 9.92249 17.8435 9.62975 17.0196C9.60229 16.9423 9.59035 16.8603 9.59458 16.7783C9.59882 16.6963 9.61917 16.616 9.65445 16.5419C9.68974 16.4677 9.73928 16.4013 9.80024 16.3463C9.8612 16.2914 9.93239 16.2489 10.0097 16.2215C10.0871 16.194 10.1691 16.1821 10.2511 16.1863C10.3331 16.1906 10.4134 16.2109 10.4875 16.2462C10.5616 16.2815 10.6281 16.331 10.683 16.392C10.738 16.4529 10.7804 16.5241 10.8079 16.6015C11.0383 17.2502 11.4107 17.8394 11.8979 18.3259C13.7104 20.1384 16.6572 20.1359 18.4791 18.3134C20.3016 16.4915 20.3041 13.5446 18.4916 11.7321C16.6791 9.91962 13.7316 9.92212 11.9104 11.744C11.4691 12.1846 11.1203 12.7088 10.8841 13.2859L9.72662 12.8146C10.0254 12.0832 10.4672 11.4188 11.026 10.8602ZM14.9991 12.5009C15.1649 12.5009 15.3239 12.5667 15.4411 12.6839C15.5583 12.8011 15.6241 12.9601 15.6241 13.1259V15.2721L16.8829 16.0277C17.0185 16.116 17.1145 16.2534 17.1509 16.411C17.1873 16.5687 17.1611 16.7343 17.0779 16.873C16.9947 17.0117 16.8609 17.1128 16.7047 17.155C16.5485 17.1971 16.3821 17.177 16.2404 17.099L14.7385 16.1984C14.6273 16.1317 14.5353 16.0374 14.4714 15.9245C14.4076 15.8117 14.374 15.6843 14.3741 15.5546V13.1259C14.3741 12.9601 14.44 12.8011 14.5572 12.6839C14.6744 12.5667 14.8334 12.5009 14.9991 12.5009Z" fill="url(#paint1_linear_622_15981)"/>
<defs>
<linearGradient id="paint0_linear_622_15981" x1="8.92969" y1="12.4686" x2="12.502" y2="12.4686" gradientUnits="userSpaceOnUse">
<stop offset="0.075" stop-color="#BF9347"/>
<stop offset="0.28" stop-color="#FBF398"/>
<stop offset="0.54" stop-color="#F0D571"/>
<stop offset="0.8" stop-color="#F9F194"/>
<stop offset="1" stop-color="#DEAB3D"/>
</linearGradient>
<linearGradient id="paint1_linear_622_15981" x1="9.59375" y1="15.029" x2="21.0986" y2="15.029" gradientUnits="userSpaceOnUse">
<stop offset="0.075" stop-color="#BF9347"/>
<stop offset="0.28" stop-color="#FBF398"/>
<stop offset="0.54" stop-color="#F0D571"/>
<stop offset="0.8" stop-color="#F9F194"/>
<stop offset="1" stop-color="#DEAB3D"/>
</linearGradient>
</defs>
</svg>
