<svg width="22" height="22" viewBox="0 0 22 22" fill="none" xmlns="http://www.w3.org/2000/svg">
<path d="M15.9955 8.013H16.0035M16.0035 6.009V3.505M6.5015 21H3.7175C3.3945 21 3.0695 20.954 2.7725 20.827C1.8065 20.412 1.3155 19.863 1.0875 19.52C1.02563 19.425 0.995225 19.3129 1.00061 19.1997C1.00599 19.0864 1.04689 18.9777 1.1175 18.889C2.2375 17.401 4.8335 16.503 6.5015 16.503M6.50651 21H9.28951C9.61351 21 9.9375 20.954 10.2345 20.827C11.2015 20.412 11.6915 19.863 11.9205 19.52C11.9824 19.425 12.0128 19.3129 12.0074 19.1997C12.002 19.0864 11.9611 18.9777 11.8905 18.889C10.7705 17.401 8.1745 16.503 6.50651 16.503M20.9995 5.792C20.9995 8.438 18.7595 10.584 15.9955 10.584C15.6702 10.584 15.3475 10.554 15.0275 10.494C14.7975 10.451 14.6835 10.43 14.6025 10.442C14.5225 10.454 14.4085 10.514 14.1825 10.636C13.5352 10.9811 12.7901 11.0971 12.0685 10.965C12.3425 10.627 12.5285 10.222 12.6115 9.788C12.6615 9.523 12.5375 9.265 12.3515 9.076C11.483 8.20339 10.9942 7.02314 10.9915 5.792C10.9915 3.146 13.2315 1 15.9955 1C18.7595 1 20.9995 3.146 20.9995 5.792ZM9.2845 11.289C9.28344 12.0249 8.99023 12.7303 8.46931 13.2501C7.94839 13.7698 7.2424 14.0615 6.50651 14.061C6.14196 14.0615 5.78087 13.9902 5.44387 13.8512C5.10687 13.7122 4.80055 13.5082 4.5424 13.2508C4.28426 12.9934 4.07934 12.6876 3.93935 12.351C3.79935 12.0144 3.72703 11.6535 3.72651 11.289C3.7269 10.9244 3.79913 10.5634 3.93906 10.2267C4.07899 9.88995 4.28389 9.58411 4.54205 9.3266C4.80021 9.06909 5.10657 8.86496 5.44364 8.72587C5.78071 8.58679 6.14187 8.51547 6.50651 8.516C7.24257 8.51547 7.94872 8.80729 8.46967 9.3273C8.99061 9.84731 9.28371 10.5529 9.2845 11.289Z" stroke="url(#paint0_linear_496_16452)" stroke-width="1.5" stroke-linecap="round" stroke-linejoin="round"/>
<defs>
<linearGradient id="paint0_linear_496_16452" x1="10.9998" y1="1" x2="10.9998" y2="21" gradientUnits="userSpaceOnUse">
<stop offset="0.055" stop-color="#D9AB07"/>
<stop offset="0.525" stop-color="#FFF2C5"/>
<stop offset="1" stop-color="#D9AB07"/>
</linearGradient>
</defs>
</svg>
