<svg width="24" height="24" viewBox="0 0 24 24" fill="none" xmlns="http://www.w3.org/2000/svg">
<path d="M8 14H16M8 10H10M8 18H12M10 3H6C5.46957 3 4.96086 3.21071 4.58579 3.58579C4.21071 3.96086 4 4.46957 4 5V20C4 20.5304 4.21071 21.0391 4.58579 21.4142C4.96086 21.7893 5.46957 22 6 22H18C18.5304 22 19.0391 21.7893 19.4142 21.4142C19.7893 21.0391 20 20.5304 20 20V5C20 4.46957 19.7893 3.96086 19.4142 3.58579C19.0391 3.21071 18.5304 3 18 3H14.5M10 3V1M10 3V5" stroke="url(#paint0_linear_496_16441)" stroke-width="1.5" stroke-linecap="round" stroke-linejoin="round"/>
<defs>
<linearGradient id="paint0_linear_496_16441" x1="12" y1="1" x2="12" y2="22" gradientUnits="userSpaceOnUse">
<stop offset="0.055" stop-color="#D9AB07"/>
<stop offset="0.525" stop-color="#FFF2C5"/>
<stop offset="1" stop-color="#D9AB07"/>
</linearGradient>
</defs>
</svg>
