<svg width="24" height="24" viewBox="0 0 24 24" fill="none" xmlns="http://www.w3.org/2000/svg">
<path fill-rule="evenodd" clip-rule="evenodd" d="M6.5 3C6.23478 3 5.98043 3.10536 5.79289 3.29289C5.60536 3.48043 5.5 3.73478 5.5 4V4.5H3V14H14V4.5H11.5V4C11.5 3.73478 11.3946 3.48043 11.2071 3.29289C11.0196 3.10536 10.7652 3 10.5 3H6.5ZM10.5 9C10.7652 9 11.0196 8.89464 11.2071 8.70711C11.3946 8.51957 11.5 8.26522 11.5 8V7.5H13V13H10.5V10H6.5V13H4V7.5H5.5V8C5.5 8.26522 5.60536 8.51957 5.79289 8.70711C5.98043 8.89464 6.23478 9 6.5 9H10.5ZM4 5.5H5.5V6.5H4V5.5ZM13 6.5H11.5V5.5H13V6.5ZM9.5 11V13H7.5V11H9.5ZM8 4V5.5H6.5V6.5H8V8H9V6.5H10.5V5.5H9V4H8Z" fill="url(#paint0_linear_496_16446)"/>
<path d="M15.0019 13.5C15.0019 12.9696 15.2127 12.4609 15.5877 12.0858C15.9628 11.7107 16.4715 11.5 17.0019 11.5C17.5324 11.5 18.0411 11.7107 18.4162 12.0858C18.7912 12.4609 19.0019 12.9696 19.0019 13.5C19.0019 14.0304 18.7912 14.5391 18.4162 14.9142C18.0411 15.2893 17.5324 15.5 17.0019 15.5C16.4715 15.5 15.9628 15.2893 15.5877 14.9142C15.2127 14.5391 15.0019 14.0304 15.0019 13.5ZM17.0019 16.5C15.6669 16.5 13.0019 17.231 13.0019 18.682V20H8.50194C8.13744 20 7.90094 19.8685 7.75044 19.699C7.59194 19.5205 7.50194 19.2685 7.50194 19V17.207L9.14844 18.8535L9.85544 18.1465L7.00194 15.293L4.14844 18.1465L4.85544 18.8535L6.50194 17.207V19C6.50194 19.4815 6.66194 19.9795 7.00344 20.3635C7.35294 20.7565 7.86644 21 8.50194 21H21.0019V18.682C21.0019 17.231 18.3369 16.5 17.0019 16.5Z" fill="url(#paint1_linear_496_16446)"/>
<defs>
<linearGradient id="paint0_linear_496_16446" x1="8.5" y1="3" x2="8.5" y2="14" gradientUnits="userSpaceOnUse">
<stop offset="0.055" stop-color="#D9AB07"/>
<stop offset="0.525" stop-color="#FFF2C5"/>
<stop offset="1" stop-color="#D9AB07"/>
</linearGradient>
<linearGradient id="paint1_linear_496_16446" x1="12.5752" y1="11.5" x2="12.5752" y2="21" gradientUnits="userSpaceOnUse">
<stop offset="0.055" stop-color="#D9AB07"/>
<stop offset="0.525" stop-color="#FFF2C5"/>
<stop offset="1" stop-color="#D9AB07"/>
</linearGradient>
</defs>
</svg>
