<svg width="24" height="28" viewBox="0 0 24 28" fill="none" xmlns="http://www.w3.org/2000/svg">
<path d="M2.90909 7.98778L4.07273 7L19.2727 20.0044L18.1182 21L15.3182 18.6044C14.2727 18.9 13.1636 19.0556 12 19.0556C7.45455 19.0556 3.57273 16.6367 2 13.2222C2.62727 11.8533 3.62727 10.6478 4.9 9.69111L2.90909 7.98778ZM12 10.8889C12.7233 10.8889 13.417 11.1347 13.9285 11.5723C14.4399 12.0099 14.7273 12.6034 14.7273 13.2222C14.7277 13.4871 14.6755 13.7501 14.5727 14L11.0909 11.0211C11.383 10.9332 11.6904 10.8885 12 10.8889ZM12 7.38889C16.5455 7.38889 20.4273 9.80778 22 13.2222C21.2576 14.8345 19.9969 16.234 18.3636 17.2589L17.0727 16.1467C18.33 15.4027 19.3439 14.396 20.0182 13.2222C19.2833 11.9388 18.1423 10.8575 16.7249 10.1013C15.3074 9.34506 13.6704 8.94426 12 8.94444C11.0091 8.94444 10.0364 9.08444 9.12727 9.33333L7.72727 8.14333C9.03636 7.66111 10.4818 7.38889 12 7.38889ZM3.98182 13.2222C4.71668 14.5057 5.85769 15.587 7.27512 16.3432C8.69256 17.0994 10.3296 17.5002 12 17.5C12.6273 17.5 13.2455 17.4456 13.8182 17.3367L11.7455 15.5556C11.1129 15.4975 10.5226 15.256 10.0727 14.8711C9.62284 14.4862 9.34053 13.9812 9.27273 13.44L6.18182 10.7878C5.28182 11.4489 4.52727 12.2733 3.98182 13.2222Z" fill="url(#paint0_linear_496_16064)"/>
<defs>
<linearGradient id="paint0_linear_496_16064" x1="12" y1="7" x2="12" y2="21" gradientUnits="userSpaceOnUse">
<stop offset="0.055" stop-color="#D9AB07"/>
<stop offset="0.525" stop-color="#FFF2C5"/>
<stop offset="1" stop-color="#D9AB07"/>
</linearGradient>
</defs>
</svg>
