<svg width="24" height="24" viewBox="0 0 24 24" fill="none" xmlns="http://www.w3.org/2000/svg">
<path d="M2.06593 3.48103C1.75593 2.53153 2.74493 1.67953 3.63843 2.12603L21.3804 10.994C22.2094 11.409 22.2094 12.592 21.3804 13.0065L3.63843 21.875C2.74493 22.3215 1.75593 21.469 2.06593 20.52L4.84443 12L2.06593 3.48103ZM5.95593 12.6255L3.34693 20.623L20.5974 12.0005L3.34693 3.37753L5.95543 11.3755H14.3769C14.5427 11.3755 14.7017 11.4414 14.8189 11.5586C14.9361 11.6758 15.0019 11.8348 15.0019 12.0005C15.0019 12.1663 14.9361 12.3253 14.8189 12.4425C14.7017 12.5597 14.5427 12.6255 14.3769 12.6255H5.95593Z" fill="url(#paint0_linear_496_16098)"/>
<defs>
<linearGradient id="paint0_linear_496_16098" x1="12.005" y1="2.00391" x2="12.005" y2="21.9971" gradientUnits="userSpaceOnUse">
<stop offset="0.055" stop-color="#D9AB07"/>
<stop offset="0.525" stop-color="#FFF2C5"/>
<stop offset="1" stop-color="#D9AB07"/>
</linearGradient>
</defs>
</svg>
